# Blender v2.67 (sub 1) OBJ File: 'ship.blend'
# www.blender.org
v 1.000000 0.166296 -1.000000
v 2.402377 0.254857 0.002799
v 2.402377 0.202140 0.002799
v -1.000000 0.166296 -1.000000
v 1.000000 0.888525 -0.999999
v 2.402377 0.254857 -0.032487
v 2.402377 0.202140 -0.032487
v -1.000000 0.888525 -1.000000
v 1.000000 -0.485660 -3.031953
v -0.999999 -0.485660 -3.031954
v 1.000001 -0.245799 -2.875814
v -0.999999 -0.245799 -2.875815
v -1.690724 0.166295 -0.706288
v -1.690725 0.888525 -0.706287
v -1.690724 0.166295 -0.706288
v -1.690725 0.888525 -0.706287
v -0.999999 -0.040848 -2.015977
v 1.000000 -0.040848 -2.015977
v 1.000001 0.440197 -1.937907
v -1.000000 0.440197 -1.937907
v 1.000000 0.166296 1.000000
v 2.402377 0.254857 -0.002799
v 2.402377 0.202140 -0.002799
v -1.000000 0.166296 1.000000
v 1.000000 0.888525 0.999999
v 2.402377 0.254857 0.032487
v 2.402377 0.202140 0.032487
v -1.000000 0.888525 1.000000
v 1.000000 0.000000 -0.000000
v -1.000000 0.000000 0.000000
v 1.000000 1.021351 -0.000001
v -1.000000 1.021351 0.000000
v 1.000000 -0.485660 3.031953
v -0.999999 -0.485660 3.031954
v 1.000001 -0.245799 2.875814
v -0.999999 -0.245799 2.875815
v -1.690724 0.166295 0.706288
v -1.690725 0.888525 0.706287
v -1.690725 -0.000000 0.000000
v -1.690725 1.021351 0.000000
v -1.690724 0.166295 0.706288
v -1.690725 0.888525 0.706287
v -0.999999 -0.040848 2.015977
v 1.000000 -0.040848 2.015977
v 1.000001 0.440197 1.937907
v -1.000000 0.440197 1.937907
vn 0.474303 0.872697 -0.115916
vn 0.567875 0.000000 -0.823115
vn -0.000000 -0.916051 0.401063
vn -0.000000 -0.986453 -0.164043
vn 0.000000 0.991294 -0.131669
vn 0.137082 -0.977141 -0.162494
vn 1.000000 0.000000 0.000000
vn 0.000000 0.545551 -0.838078
vn 0.000000 0.807144 -0.590354
vn 1.000000 -0.000001 0.000001
vn -1.000000 -0.000001 0.000000
vn -1.000000 -0.000000 -0.000000
vn -0.069586 -0.984062 -0.163645
vn -0.391315 0.000000 -0.920257
vn -0.000000 -0.979842 0.199777
vn 0.000000 0.902223 -0.431271
vn 0.474303 0.872697 0.115916
vn 0.567875 0.000000 0.823115
vn -0.000000 -0.916051 -0.401063
vn 0.000000 -0.986453 0.164043
vn 0.000000 0.991294 0.131669
vn 0.142666 -0.989771 0.000000
vn 0.000000 0.545551 0.838078
vn 0.000000 0.807144 0.590354
vn 1.000000 -0.000004 -0.000003
vn -1.000000 -0.000002 -0.000000
vn -0.096995 -0.968794 0.228103
vn -0.391315 0.000000 0.920257
vn -0.000000 -0.979842 -0.199777
vn 0.000000 0.902223 0.431271
vn 1.000000 -0.000001 -0.000001
vn 0.479605 0.877485 -0.000000
vn -0.000000 -0.916051 0.401062
vn 1.000000 -0.000004 0.000003
vn 0.000000 -0.973383 -0.229183
vn -0.078350 0.979751 -0.184254
vn 1.000000 -0.000001 0.000000
vn -0.000000 -0.916051 -0.401062
vn 0.137082 -0.977141 0.162494
vn -0.078350 0.979751 0.184254
s off
f 5//1 31//1 6//1
f 1//2 5//2 6//2
f 18//3 17//3 9//3
f 1//4 29//4 30//4
f 5//5 8//5 32//5
f 29//6 1//6 7//6
f 7//7 6//7 2//7
f 11//8 9//8 10//8
f 20//9 19//9 11//9
f 19//10 18//10 9//10
f 17//11 20//11 12//11
f 39//12 40//12 14//12
f 4//13 30//13 13//13
f 8//14 4//14 14//14
f 32//5 8//5 40//5
f 1//15 4//15 18//15
f 8//16 5//16 19//16
f 5//10 1//10 19//10
f 4//12 8//12 17//12
f 25//17 26//17 31//17
f 21//18 27//18 26//18
f 44//19 33//19 43//19
f 21//20 24//20 30//20
f 25//21 31//21 32//21
f 29//22 23//22 27//22
f 27//7 23//7 22//7
f 35//23 36//23 34//23
f 46//24 36//24 35//24
f 45//25 35//25 33//25
f 43//26 34//26 36//26
f 39//12 37//12 38//12
f 24//27 37//27 39//27
f 28//28 38//28 24//28
f 32//21 40//21 28//21
f 21//29 44//29 24//29
f 28//30 46//30 45//30
f 25//31 45//31 21//31
f 24//12 43//12 28//12
f 31//32 2//32 6//32
f 7//2 1//2 6//2
f 17//33 10//33 9//33
f 4//4 1//4 30//4
f 31//5 5//5 32//5
f 3//22 29//22 7//22
f 3//7 7//7 2//7
f 12//8 11//8 10//8
f 12//9 20//9 11//9
f 11//34 19//34 9//34
f 10//26 17//26 12//26
f 13//12 39//12 14//12
f 30//35 39//35 13//35
f 4//14 13//14 14//14
f 8//36 14//36 40//36
f 4//15 17//15 18//15
f 20//16 8//16 19//16
f 1//37 18//37 19//37
f 8//11 20//11 17//11
f 26//32 22//32 31//32
f 25//18 21//18 26//18
f 33//38 34//38 43//38
f 29//20 21//20 30//20
f 28//21 25//21 32//21
f 21//39 29//39 27//39
f 26//7 27//7 22//7
f 33//23 35//23 34//23
f 45//24 46//24 35//24
f 44//31 45//31 33//31
f 46//11 43//11 36//11
f 40//12 39//12 38//12
f 30//20 24//20 39//20
f 38//28 37//28 24//28
f 40//40 38//40 28//40
f 44//29 43//29 24//29
f 25//30 28//30 45//30
f 45//37 44//37 21//37
f 43//11 46//11 28//11
